<svg width="100" height="100" xmlns="http://www.w3.org/2000/svg" clip-path="url(#corcle)">
    <rect width="100" height="100" fill="#000000" />
    <clipPath id="clip">
        <!-- <path
            d="M-17.67766952966369 17.67766952966369 L17.67766952966369 -17.67766952966369 A25 25 0 0 0 -17.67766952966369 17.67766952966369 Z"
            transform="translate(50, 50)" /> -->
        <circle cx="50" cy="50" r="25" />
    </clipPath>
    <clipPath id="corcle">
        <circle cx="50" cy="50" r="50" />
    </clipPath>
    <g clip-path="url(#clip)">
        <g transform="translate(25, 25) scale(0.09765625)">
            <rect width="512" height="512" fill="#404040" />
            <rect width="500" height="500" transform="translate(200,100) rotate(60)" fill="#ffff0040" />
            <polygon points="200,300 -200,0 150,0" fill="#00ff0040" />
            <circle cx="400" cy="400" r="200" fill="#0080ff40" />
            <rect width="200" height="200" transform="translate(400,0) rotate(40)" fill="#ff00ff40" />
        </g>
    </g>
    <circle cx="50" cy="50" r="25" fill="#2080ff60" />
    <path
        d="M14.142135623730951 -14.14213562373095 L24.944088369076358 -16.667106990588067 L18.477590650225736 -7.653668647301796 L29.423558412096913 -5.852709660483847 L20 0 L29.423558412096913 5.852709660483847 L18.477590650225736 7.653668647301796 L24.944088369076358 16.667106990588067 L14.142135623730951 14.14213562373095 L16.667106990588067 24.944088369076358 L7.653668647301797 18.477590650225736 L5.85270966048385 29.423558412096913 L1.2246467991473533e-15 20 L-5.852709660483846 29.423558412096913 L-7.653668647301794 18.477590650225736 L-16.66710699058806 24.94408836907636 L-14.14213562373095 14.142135623730951 
            L-17.67766952966369 17.67766952966369 L17.67766952966369 -17.67766952966369 A25 25 0 0 1 -17.67766952966369 17.67766952966369 Z"
        fill="#d01000" transform="translate(50, 50)" />
</svg>