<svg width="100" height="100" xmlns="http://www.w3.org/2000/svg">
	<circle cx="50" cy="50" r="50" fill="#00ffff" />
	<circle cx="50" cy="50" r="45" fill="#000000" />
    <g fill="#00ffff" transform="translate(50, 50)">
        <rect y="-4" width="25" height="6" />
        <rect width="10" height="6" transform="translate(25, 0) rotate(-60) translate(0, -3)" />
        <rect width="10" height="6" transform="translate(25, 0) rotate(60) translate(0, -3)" />
    </g>
    <g fill="#00ffff" transform="translate(50, 50) rotate(60)">
        <rect y="-4" width="25" height="6" />
        <rect width="10" height="6" transform="translate(25, 0) rotate(-60) translate(0, -3)" />
        <rect width="10" height="6" transform="translate(25, 0) rotate(60) translate(0, -3)" />
    </g>
    <g fill="#00ffff" transform="translate(50, 50) rotate(120)">
        <rect y="-4" width="25" height="6" />
        <rect width="10" height="6" transform="translate(25, 0) rotate(-60) translate(0, -3)" />
        <rect width="10" height="6" transform="translate(25, 0) rotate(60) translate(0, -3)" />
    </g>
    <g fill="#00ffff" transform="translate(50, 50) rotate(180)">
        <rect y="-4" width="25" height="6" />
        <rect width="10" height="6" transform="translate(25, 0) rotate(-60) translate(0, -3)" />
        <rect width="10" height="6" transform="translate(25, 0) rotate(60) translate(0, -3)" />
    </g>
    <g fill="#00ffff" transform="translate(50, 50) rotate(240)">
        <rect y="-4" width="25" height="6" />
        <rect width="10" height="6" transform="translate(25, 0) rotate(-60) translate(0, -3)" />
        <rect width="10" height="6" transform="translate(25, 0) rotate(60) translate(0, -3)" />
    </g>
    <g fill="#00ffff" transform="translate(50, 50) rotate(300)">
        <rect y="-4" width="25" height="6" />
        <rect width="10" height="6" transform="translate(25, 0) rotate(-60) translate(0, -3)" />
        <rect width="10" height="6" transform="translate(25, 0) rotate(60) translate(0, -3)" />
    </g>
    <polygon points="0,-20 17.3205080757,-10 17.3205080757,10 0,20 -17.3205080757,10 -17.3205080757,-10" transform="translate(50,50)" fill="#00ffff" />
    <polygon points="0,-15 12.9903810568,-7.5 12.9903810568,7.5 0,15 -12.9903810568,7.5 -12.9903810568,-7.5" transform="translate(50,50)" fill="#000000" />
</svg>
