<svg width="150" height="100" xmlns="http://www.w3.org/2000/svg">
    <clipPath id="c">
        <circle cx="50" cy="50" r="45" />
    </clipPath>
    <path d="M90 47 C140 47 140 47 150 40 Q140 50 150 60 C140 53 140 53 90 53 Z" fill="#ff00c0" />
    <circle cx="50" cy="50" r="50" fill="#000000" />
    <circle cx="50" cy="50" r="45" fill="#00a000" />
    <circle cx="25" cy="30" r="15" fill="#008000" clip-path="url(#c)" />
    <circle cx="80" cy="60" r="25" fill="#008000" clip-path="url(#c)" />
    <circle cx="20" cy="75" r="20" fill="#00b000" clip-path="url(#c)" />
    <circle cx="60" cy="20" r="15" fill="#00b000" clip-path="url(#c)" />
    <path d="M80 20 L90 45 A50 50 0 0 1 80 20" fill="#000000" />
    <path d="M80 80 L90 55 A50 50 0 0 0 80 80" fill="#000000" />
</svg>