<svg width="100" height="100" xmlns="http://www.w3.org/2000/svg">
	<circle cx="50" cy="50" r="50" fill="#008080" />
	<circle cx="50" cy="50" r="45" fill="#20b0b0" />
	<polygon points="40,0 27.716385975338603,11.480502970952694 34.64101615137755,20 18.26284287026162,23.800600208737055 20,34.64101615137754 3.915785766601551,29.74334584121431 0,40 -11.480502970952692,27.716385975338603 -20,34.64101615137755 -23.800600208737052,18.262842870261625 -34.64101615137754,20 -29.74334584121431,3.9157857666015596 -40,0 -27.71638597533861,-11.480502970952676 -34.64101615137756,-20 -18.262842870261625,-23.80060020873705 -20,-34.64101615137754 -3.915785766601549,-29.74334584121431 0,-40 11.480502970952701,-27.7163859753386 20,-34.64101615137754 23.800600208737066,-18.262842870261608 34.641016151377556,-20 29.743345841214314,-3.915785766601524" fill="#008080" transform="translate(50,50)" />
	<circle cx="50" cy="50" r="15" fill="#20b0b0" />
</svg>